<svg xmlns="http://www.w3.org/2000/svg" width="14.4" height="16" viewBox="0 0 14.4 16">
  <path id="icons8-purchase-order_1_" data-name="icons8-purchase-order (1)" d="M8.086,5A1.883,1.883,0,0,0,6.234,6.895v9.895H5.617A.625.625,0,0,0,5,17.421v.842A2.716,2.716,0,0,0,7.674,21h9.051A2.716,2.716,0,0,0,19.4,18.263V6.895A1.883,1.883,0,0,0,17.549,5Zm0,1.263h9.463a.615.615,0,0,1,.617.632V18.263a1.44,1.44,0,1,1-2.88,0v-.842a.625.625,0,0,0-.617-.632h-7.2V6.895A.615.615,0,0,1,8.086,6.263ZM9.731,8.368A.632.632,0,1,0,10.349,9,.624.624,0,0,0,9.731,8.368Zm2.057,0a.632.632,0,0,0,0,1.263H15.9a.632.632,0,0,0,0-1.263ZM9.731,10.895a.632.632,0,1,0,.617.632A.624.624,0,0,0,9.731,10.895Zm2.057,0a.632.632,0,0,0,0,1.263H15.9a.632.632,0,0,0,0-1.263ZM9.731,13.421a.632.632,0,1,0,.617.632A.624.624,0,0,0,9.731,13.421Zm2.057,0a.632.632,0,0,0,0,1.263H15.9a.632.632,0,0,0,0-1.263ZM6.234,18.053h7.817v.211a2.7,2.7,0,0,0,.483,1.474H7.674a1.448,1.448,0,0,1-1.44-1.474Z" transform="translate(-5 -5)" fill="#2a60bc"/>
</svg>
